<svg xmlns="http://www.w3.org/2000/svg" width="400" height="340"><linearGradient id="grad1" x1="0%" y1="0%" x2="100%" y2="0%"><stop offset="0%" style="stop-color:#bacd92;stop-opacity:1" /><stop offset="100%" style="stop-color:#fcffe0;stop-opacity:1" /></linearGradient><path fill="url(#grad1)" d="M273.9553792364707,248.4747694158627C265.71694038691845,258.8236811677545,271.40958368828706,270.96193259244404,265.9092119729089,282.09347051135074C260.40884025753076,293.22500843025745,251.94071129021137,309.7300059008722,240.95314894420164,315.263996929303C229.96558659819192,320.7979879577338,217.2526285804394,310.19973109183906,199.98383789685064,315.29741668193566C182.7150472132619,320.39510227203226,156.3746618073389,346.6909547871682,137.34040484266913,345.8501104698827C118.30614787799936,345.00926615259715,86.20789540958074,328.56200941977704,85.77829610883201,310.2523507782226C85.34869680808328,291.94269213666814,136.66620171582846,255.8394853973124,134.76280903817673,235.99215862055604C132.859416360525,216.1448318437997,80.21007672265122,207.19607921887166,74.35794004292163,191.16839011768448C68.50580336319203,175.1407010164973,88.35732089808677,154.6177707786448,99.64998895979916,139.82602401343303C110.94265702151155,125.03427724822126,125.45527556529413,105.54393249071146,142.113948413196,102.41790952641382C158.77262126109787,99.29188656211619,180.8086944190982,124.49083461380937,199.60202604721042,121.06988622764719C218.39535767532263,117.64893784148501,238.2000383489356,81.99742207270715,254.87393818186928,81.89221920944075C271.54783801480295,81.78701634617435,280.2991735004877,109.36407247390524,299.6454250448125,120.43866904804877C318.9916765891373,131.51326562219228,368.3357107769163,131.74624349564334,370.951447447818,148.3397986543019C373.5671841187197,164.93335381296043,331.5058564387805,203.31083820640652,315.3398450702226,220C299.17383370166476,236.68916179359348,282.193818086023,238.12585766397092,273.9553792364707,248.4747694158627" stroke="none" stroke-width="3"/></svg>